{"title":"Sean Paul - Other Side Of Love [Music Video] 720p [Sbyky]","uid":9041818,"size":33913967,"categoryP":"video","categoryS":"music_videos","magnet":"?xt=urn:btih:d0f3398964d1375d404a5a6e4a26508a77c71fc0&amp;dn=Sean+Paul+-+Other+Side+Of+Love+%5BMusic+Video%5D+720p+%5BSbyky%5D&amp;tr=udp%3A%2F%2Ftracker.openbittorrent.com%3A80&amp;tr=udp%3A%2F%2Fopen.demonii.com%3A1337&amp;tr=udp%3A%2F%2Ftracker.coppersurfer.tk%3A6969&amp;tr=udp%3A%2F%2Fexodus.desync.com%3A6969","seeders":1,"leechers":0,"uploader":"Sbyky","files":1,"time":1381648924,"description":"[IMG]http://cdn.piczend.com/images/7PHZRLC8/1381629618_othersideoflove.jpg[/IMG]\n\nGeneral\nComplete name                            : Sean Paul - Other Side Of Love [Music Video] 720p [Sbyky].mp4\nFormat                                   : MPEG-4\nFormat profile                           : Base Media / Version 2\nCodec ID                                 : mp42\nFile size                                : 32.3 MiB\nDuration                                 : 3mn 14s\nOverall bit rate mode                    : Variable\nOverall bit rate                         : 1 393 Kbps\nEncoded date                             : UTC 2013-07-30 14:20:41\nTagged date                              : UTC 2013-07-30 14:20:41\n\nVideo\nID                                       : 1\nFormat                                   : AVC\nFormat/Info                              : Advanced Video Codec\nFormat profile                           : &lt;a class=&quot;__cf_email__&quot; href=&quot;/cdn-cgi/l/email-protection&quot; data-cfemail=&quot;db93b2bcb39b97e8f5ea&quot;&gt;[email&amp;#160;protected]&lt;/a&gt;&lt;script cf-hash='f9e31' type=&quot;text/javascript&quot;&gt;\n/* &lt;![CDATA[ */!function(){try{var t=&quot;currentScript&quot;in document?document.currentScript:function(){for(var t=document.getElementsByTagName(&quot;script&quot;),e=t.length;e--;)if(t[e].getAttribute(&quot;cf-hash&quot;))return t[e]}();if(t&amp;&amp;t.previousSibling){var e,r,n,i,c=t.previousSibling,a=c.getAttribute(&quot;data-cfemail&quot;);if(a){for(e=&quot;&quot;,r=parseInt(a.substr(0,2),16),n=2;a.length-n;n+=2)i=parseInt(a.substr(n,2),16)^r,e+=String.fromCharCode(i);e=document.createTextNode(e),c.parentNode.replaceChild(e,c)}}}catch(u){}}();/* ]]&gt; */&lt;/script&gt;\nFormat settings, CABAC                   : Yes\nFormat settings, ReFrames                : 1 frame\nCodec ID                                 : avc1\nCodec ID/Info                            : Advanced Video Coding\nDuration                                 : 3mn 14s\nBit rate                                 : 1 199 Kbps\nMaximum bit rate                         : 3 801 Kbps\nWidth                                    : 1 280 pixels\nHeight                                   : 720 pixels\nDisplay aspect ratio                     : 16:9\nFrame rate mode                          : Constant\nFrame rate                               : 23.976 fps\nColor space                              : YUV\nChroma subsampling                       : 4:2:0\nBit depth                                : 8 bits\nScan type                                : Progressive\nBits/(Pixel*Frame)                       : 0.054\nStream size                              : 27.8 MiB (86%)\nTagged date                              : UTC 2013-07-30 14:20:44\n\nAudio\nID                                       : 2\nFormat                                   : AAC\nFormat/Info                              : Advanced Audio Codec\nFormat profile                           : LC\nCodec ID                                 : 40\nDuration                                 : 3mn 14s\nBit rate mode                            : Variable\nBit rate                                 : 192 Kbps\nMaximum bit rate                         : 204 Kbps\nChannel(s)                               : 2 channels\nChannel positions                        : Front: L R\nSampling rate                            : 44.1 KHz\nCompression mode                         : Lossy\nStream size                              : 4.46 MiB (14%)\nTitle                                    : IsoMedia File Produced by Google, 5-11-2011\nEncoded date                             : UTC 2013-07-30 14:20:43\nTagged date                              : UTC 2013-07-30 14:20:44\n\nShared By Sbyky\n[IMG]http://cdn.piczend.com/images/X3Ag13N3/1379453786_saythanks.gif[/IMG]\n[IMG]ht                                                                     ","torrent":{"xt":"urn:btih:d0f3398964d1375d404a5a6e4a26508a77c71fc0","amp;dn":"Sean+Paul+-+Other+Side+Of+Love+%5BMusic+Video%5D+720p+%5BSbyky%5D","amp;tr":["udp%3A%2F%2Ftracker.openbittorrent.com%3A80","udp%3A%2F%2Fopen.demonii.com%3A1337","udp%3A%2F%2Ftracker.coppersurfer.tk%3A6969","udp%3A%2F%2Fexodus.desync.com%3A6969"],"infoHash":"d0f3398964d1375d404a5a6e4a26508a77c71fc0","infoHashBuffer":{"type":"Buffer","data":[208,243,57,137,100,209,55,93,64,74,90,110,74,38,80,138,119,199,31,192]},"announce":[],"urlList":[]}}